<svg width="34" height="58" viewBox="0 0 34 58" fill="none" xmlns="http://www.w3.org/2000/svg">
<g clip-path="url(#clip0_11_92840)">
<path d="M15.615 56C28.3966 37.3333 46.5199 -1.31221e-06 16.7597 -3.91393e-06C-13.0004 -6.51564e-06 3.59652 37.3333 15.615 56Z" fill="#FF9601"/>
<path d="M16.7775 32.5352C23.4485 22.5977 33.2479 4.53513 17.7155 4.53513C2.18321 4.53513 10.5048 22.5977 16.7775 32.5352Z" fill="#FFC803"/>
<path d="M11.9014 27.8028C12.8552 9.46485 22.8789 6.70428 14.7553 5.324C-0.24073 2.77599 5.76403 18.0751 11.9014 27.8028Z" fill="#FFC803"/>
<path d="M23.5382 23.2677C18.5782 4.14084 10.8813 6.99199 18.9542 5.32399C30.4061 2.9577 27.5444 14.986 23.5382 23.2677Z" fill="#FFC803"/>
</g>
<defs>
<clipPath id="clip0_11_92840">
<rect width="34" height="58" fill="white" transform="translate(34 58) rotate(-180)"/>
</clipPath>
</defs>
</svg>
