<svg width="110" height="93" viewBox="0 0 110 93" fill="none" xmlns="http://www.w3.org/2000/svg">
<path d="M56.4183 18.334L57.1502 12.6476L62.267 16.1037L72.471 44.4017L68.8623 48.2352L56.4183 18.334Z" fill="#F2C125"/>
<path d="M53.1829 18.334L52.4511 12.6476L47.3343 16.1037L37.1302 44.4017L40.739 48.2352L53.1829 18.334Z" fill="#F2C125"/>
<path d="M56.9161 14.9885L60.4004 16.9401L69.8579 43.2865L66.9957 46.6321L56.9161 14.9885Z" fill="#DB851F"/>
<path d="M52.6852 14.9885L49.2009 16.9401L39.7434 43.2865L42.6056 46.6321L52.6852 14.9885Z" fill="#DB851F"/>
<path d="M56.1532 12.2005C56.7607 12.2005 57.3032 12.6262 57.5108 13.2657L68.8623 48.2352L68.8623 70.6087L63.222 82.0754C62.9368 82.6552 62.5407 83.1409 62.0726 83.5067C61.4478 83.995 60.6947 84.2698 59.906 84.2698L49.6953 84.2698C48.9066 84.2698 48.1535 83.995 47.5287 83.5067C47.0606 83.1409 46.6645 82.6552 46.3793 82.0754L40.739 70.6087L40.739 48.2352L52.0905 13.2657C52.2981 12.6262 52.8406 12.2005 53.4481 12.2005L56.1532 12.2005Z" fill="#354E77"/>
<path d="M59.906 84.2697C61.2857 84.2697 62.5561 83.4291 63.222 82.0754L68.8623 70.6087L62.4537 49.3503L62.4537 38.4075L58.1749 26.776C57.9403 26.1383 57.3854 25.7222 56.7698 25.7222L52.8315 25.7222C52.2159 25.7222 51.661 26.1383 51.4264 26.776L47.1476 38.4075L47.1476 49.3503L40.739 70.6087L46.3793 82.0754C47.0452 83.4291 48.3157 84.2697 49.6953 84.2697L59.906 84.2697Z" fill="#2A3F5E"/>
<path d="M56.5501 48.2352C58.3068 48.2352 59.7309 46.6398 59.7309 44.672L59.7309 38.1515C59.7309 37.9278 59.693 37.7061 59.6192 37.4982L57.2495 30.824C57.0673 30.3107 56.6241 29.9739 56.131 29.9739L53.4703 29.9739C52.9773 29.9739 52.534 30.3107 52.3518 30.824L49.9821 37.4982C49.9083 37.7061 49.8705 37.9278 49.8705 38.1515L49.8705 44.672C49.8705 46.6398 51.2945 48.2352 53.0512 48.2352L56.5501 48.2352Z" fill="#F42222"/>
<path d="M56.5501 48.2352C57.6027 48.2352 58.533 47.6599 59.112 46.7775L56.4183 41.1258L54.8006 40.6031L53.183 41.1258L50.4893 46.7775C51.0682 47.6599 51.9986 48.2352 53.0512 48.2352L56.5501 48.2352Z" fill="#C12121"/>
<path d="M62.4537 38.4075L68.8623 48.2352L68.8623 70.6087L62.4537 49.3503L62.4537 38.4075Z" fill="#3F5D89"/>
<path d="M47.1476 38.4075L40.739 48.2352L40.739 70.6087L47.1476 49.3503L47.1476 38.4075Z" fill="#3F5D89"/>
<path d="M54.8006 26.9798L57.5383 25.9609L57.5383 13.3505L57.5108 13.2657C57.3032 12.6262 56.7606 12.2005 56.1532 12.2005L53.4481 12.2005C52.8407 12.2005 52.2981 12.6262 52.0905 13.2657L52.063 13.3505L52.063 25.9609L54.8006 26.9798Z" fill="#3F5D89"/>
<path d="M59.906 84.2698C60.6946 84.2698 61.4432 83.9875 62.0679 83.4993L58.6583 54.5081L50.943 54.5081L47.5333 83.4993C48.1581 83.9875 48.9066 84.2698 49.6953 84.2698L59.906 84.2698Z" fill="#3F5D89"/>
<path d="M62.4537 49.3503L58.6583 54.5081L59.6829 84.2698L59.906 84.2698C60.5958 84.2698 61.2584 84.0596 61.8317 83.6803C62.405 83.3008 62.8891 82.7523 63.222 82.0754L68.8623 70.6087L62.4537 49.3503Z" fill="#354E77"/>
<path d="M47.1476 49.3503L50.943 54.5081L49.9184 84.2698L49.6953 84.2698C49.0055 84.2698 48.3429 84.0596 47.7696 83.6803C47.1963 83.3008 46.7123 82.7523 46.3793 82.0754L40.739 70.6087L47.1476 49.3503Z" fill="#354E77"/>
<path d="M76.2043 0L76.2043 72.7341L82.924 92.0761L89.3327 74.5119L107.065 66.8101L80.4353 7.57415e-08L76.2043 0Z" fill="#354E77"/>
<path d="M33.397 5.52468e-07L33.397 72.7341L26.6773 92.0761L20.2686 74.5119L2.53598 66.8101L29.1661 4.76727e-07L33.397 5.52468e-07Z" fill="#354E77"/>
<path d="M68.8623 48.2352L76.2043 54.5081L76.2043 72.7341L68.8623 70.6087L68.8623 48.2352Z" fill="#2A3F5E"/>
<path d="M40.739 48.2352L33.3971 54.5081L33.3971 72.7341L40.739 70.6087L40.739 48.2352Z" fill="#2A3F5E"/>
<path d="M80.4352 0L85.0395 4.46073L109.601 56.8026L107.065 66.8101L80.4352 0Z" fill="#F2C125"/>
<path d="M29.1661 3.10397e-05L24.5619 4.46076L3.35255e-05 56.8026L2.53607 66.8101L29.1661 3.10397e-05Z" fill="#F2C125"/>
<path d="M81.8548 3.93643L83.2291 5.02776L106.707 56.7476L104.991 61.6066L81.8548 3.93643Z" fill="#DB851F"/>
<path d="M27.7465 3.93646L26.3722 5.02779L2.89438 56.7477L4.61005 61.6066L27.7465 3.93646Z" fill="#DB851F"/>
<path d="M56.4184 41.1258L57.3324 31.0574L57.2495 30.824C57.0673 30.3107 56.6241 29.9739 56.131 29.9739L53.4703 29.9739C52.9773 29.9739 52.534 30.3107 52.3518 30.824L52.269 31.0574L53.183 41.1258L56.4184 41.1258Z" fill="#FF6464"/>
<path d="M65.6432 66.3366L60.2683 69.8128L59.7309 68.7703L65.1059 65.294L65.6432 66.3366Z" fill="#2A3F5E"/>
<path d="M65.6431 66.3365L60.2683 69.8128L60.0973 69.4812L65.4723 66.0049L65.6431 66.3365Z" fill="#3F5D89"/>
<path d="M43.9582 66.3366L49.3331 69.8128L49.8705 68.7703L44.4955 65.294L43.9582 66.3366Z" fill="#2A3F5E"/>
<path d="M43.9582 66.3366L49.3331 69.8128L49.504 69.4812L44.129 66.0049L43.9582 66.3366Z" fill="#3F5D89"/>
<path d="M66.5892 68.1721L61.2142 71.6484L60.6769 70.6059L66.0518 67.1295L66.5892 68.1721Z" fill="#2A3F5E"/>
<path d="M66.5892 68.1721L61.2142 71.6484L61.0433 71.3168L66.4183 67.8405L66.5892 68.1721Z" fill="#3F5D89"/>
<path d="M43.0121 68.1721L48.3871 71.6484L48.9244 70.6058L43.5495 67.1295L43.0121 68.1721Z" fill="#2A3F5E"/>
<path d="M43.0121 68.172L48.3871 71.6484L48.558 71.3167L43.183 67.8404L43.0121 68.172Z" fill="#3F5D89"/>
<path d="M67.5352 70.0076L62.1602 73.4839L61.623 72.4413L66.9979 68.9651L67.5352 70.0076Z" fill="#2A3F5E"/>
<path d="M67.5353 70.0076L62.1603 73.4839L61.9894 73.1523L67.3644 69.676L67.5353 70.0076Z" fill="#3F5D89"/>
<path d="M42.0661 70.0076L47.4411 73.4839L47.9784 72.4413L42.6035 68.9651L42.0661 70.0076Z" fill="#2A3F5E"/>
<path d="M42.0661 70.0076L47.4411 73.4839L47.612 73.1523L42.2371 69.676L42.0661 70.0076Z" fill="#3F5D89"/>
<path d="M76.2043 0L82.924 92.0761L76.2043 72.7341L76.2043 0Z" fill="#3F5D89"/>
<path d="M33.397 1.20295e-07L26.6773 92.0761L33.397 72.7341L33.397 1.20295e-07Z" fill="#3F5D89"/>
<path d="M89.3327 74.5119L76.2043 0L80.4353 7.57415e-08L107.065 66.8101L89.3327 74.5119Z" fill="#3F5D89"/>
<path d="M20.2686 74.5119L33.397 5.52468e-07L29.1661 4.76727e-07L2.53598 66.8101L20.2686 74.5119Z" fill="#3F5D89"/>
<path d="M91.462 31.6497L87.0856 23.356C86.6747 22.5771 85.8501 22.2245 85.0802 22.5004L84.7276 22.6266C83.9587 22.9019 83.4688 23.7234 83.5362 24.6244L84.2831 34.598C84.3269 35.1815 84.6003 35.7046 85.0329 36.033L86.5808 37.2078C86.8698 37.4273 87.2049 37.5405 87.5447 37.5405C87.7094 37.5405 87.8753 37.5139 88.0374 37.4599L90.0687 36.783C90.6845 36.5775 91.1436 36.0113 91.2669 35.3053L91.6696 33.0014C91.7507 32.5372 91.677 32.057 91.462 31.6497Z" fill="#2A3F5E"/>
<path d="M18.1392 31.6497L22.5157 23.356C22.9265 22.577 23.7512 22.2245 24.5211 22.5003L24.8737 22.6266C25.6426 22.9019 26.1325 23.7234 26.0651 24.6244L25.3182 34.598C25.2744 35.1815 25.001 35.7046 24.5683 36.0329L23.0204 37.2078C22.7315 37.4272 22.3964 37.5405 22.0566 37.5405C21.8918 37.5405 21.726 37.5138 21.5639 37.4599L19.5326 36.7829C18.9168 36.5775 18.4577 36.0112 18.3344 35.3053L17.9317 33.0013C17.8506 32.5371 17.9243 32.057 18.1392 31.6497Z" fill="#2A3F5E"/>
<path d="M84.1653 24.5653L84.9123 34.5387C84.9399 34.9065 85.1144 35.2405 85.3871 35.4475L86.9351 36.6226C87.2057 36.8279 87.5442 36.8864 87.8574 36.782L89.8885 36.1051C90.2772 35.9756 90.5695 35.6151 90.6474 35.1693L91.05 32.8654C91.1014 32.5717 91.0546 32.2672 90.9186 32.0095L86.5422 23.7158C86.2835 23.2255 85.7566 23.0006 85.2722 23.174L84.9198 23.3001C84.4358 23.4733 84.1228 23.9981 84.1653 24.5653Z" fill="#F42222"/>
<path d="M25.436 24.5653L24.689 34.5387C24.6614 34.9065 24.4869 35.2405 24.2142 35.4475L22.6662 36.6226C22.3956 36.8279 22.0571 36.8864 21.7439 36.782L19.7128 36.1051C19.3242 35.9756 19.0318 35.6151 18.9539 35.1693L18.5513 32.8654C18.4999 32.5717 18.5467 32.2672 18.6827 32.0095L23.0591 23.7158C23.3178 23.2255 23.8447 23.0006 24.3291 23.174L24.6815 23.3001C25.1655 23.4733 25.4785 23.9981 25.436 24.5653Z" fill="#F42222"/>
<path d="M85.2722 23.1739L84.9198 23.3001C84.4358 23.4733 84.1228 23.9981 84.1653 24.5653L84.2086 25.143L87.2047 33.2197L88.7434 32.7336L86.7496 24.1088L86.5422 23.7157C86.2835 23.2255 85.7566 23.0006 85.2722 23.1739Z" fill="#FF6464"/>
<path d="M24.3291 23.174L24.6815 23.3001C25.1655 23.4733 25.4785 23.9982 25.436 24.5653L25.3927 25.143L22.3966 33.2198L20.8579 32.7336L22.8517 24.1088L23.0591 23.7158C23.3178 23.2255 23.8447 23.0007 24.3291 23.174Z" fill="#FF6464"/>
<path d="M90.5654 35.446L88.7434 32.7336L87.2047 33.2197C87.2047 33.2197 87.1757 35.1827 87.1529 36.7499C87.3761 36.8467 87.6237 36.86 87.8574 36.782L89.8885 36.1051C90.1925 36.0038 90.4358 35.7602 90.5654 35.446Z" fill="#C12121"/>
<path d="M19.0359 35.4461L20.8579 32.7336L22.3965 33.2198C22.3965 33.2198 22.4255 35.1827 22.4484 36.7499C22.2252 36.8467 21.9776 36.86 21.7439 36.7821L19.7127 36.1051C19.4088 36.0038 19.1655 35.7602 19.0359 35.4461Z" fill="#C12121"/>
<path d="M97.8604 52.1856L89.6154 55.2319L90.0861 56.8307L98.3311 53.7844L97.8604 52.1856Z" fill="#2A3F5E"/>
<path d="M98.1396 53.1339L89.8946 56.1801L90.0861 56.8307L98.3311 53.7843L98.1396 53.1339Z" fill="#354E77"/>
<path d="M98.9054 55.7349L90.6604 58.7811L91.1311 60.3798L99.3761 57.3336L98.9054 55.7349Z" fill="#2A3F5E"/>
<path d="M99.1847 56.6832L90.9397 59.7294L91.1311 60.3799L99.3762 57.3336L99.1847 56.6832Z" fill="#354E77"/>
<path d="M99.9504 59.2841L91.7054 62.3304L92.1761 63.9291L100.421 60.8829L99.9504 59.2841Z" fill="#2A3F5E"/>
<path d="M100.23 60.2324L91.9847 63.2787L92.1762 63.9291L100.421 60.8829L100.23 60.2324Z" fill="#354E77"/>
<path d="M11.7408 52.1856L19.9858 55.2318L19.5151 56.8306L11.2701 53.7843L11.7408 52.1856Z" fill="#2A3F5E"/>
<path d="M11.4616 53.1339L19.7067 56.1801L19.5151 56.8307L11.2701 53.7843L11.4616 53.1339Z" fill="#354E77"/>
<path d="M10.6958 55.7349L18.9409 58.7811L18.4702 60.3798L10.2251 57.3336L10.6958 55.7349Z" fill="#2A3F5E"/>
<path d="M10.4166 56.6832L18.6616 59.7294L18.4702 60.3798L10.2251 57.3336L10.4166 56.6832Z" fill="#354E77"/>
<path d="M9.65091 59.2841L17.8959 62.3304L17.4252 63.9291L9.18015 60.8829L9.65091 59.2841Z" fill="#2A3F5E"/>
<path d="M9.37167 60.2324L17.6167 63.2787L17.4252 63.9291L9.18015 60.8829L9.37167 60.2324Z" fill="#354E77"/>
</svg>
